<?xml version="1.0" encoding="utf-8"?>
<!-- Generator: Adobe Illustrator 16.0.0, SVG Export Plug-In . SVG Version: 6.00 Build 0)  -->
<!DOCTYPE svg PUBLIC "-//W3C//DTD SVG 1.1//EN" "http://www.w3.org/Graphics/SVG/1.1/DTD/svg11.dtd">
<svg version="1.1" id="Layer_1" xmlns="http://www.w3.org/2000/svg" xmlns:xlink="http://www.w3.org/1999/xlink" x="0px" y="0px"
	 width="611.834px" height="706.506px" viewBox="0.083 42.123 611.834 706.506"
	 enable-background="new 0.083 42.123 611.834 706.506" xml:space="preserve">
<polygon id="fill" fill="#428BCA" points="611.917,572.053 305.999,748.657 0.083,572.05 0.083,218.756 305.999,42.151 
	611.917,218.756 "/>
<linearGradient id="gradient_1_" gradientUnits="userSpaceOnUse" x1="305.6709" y1="404.7256" x2="305.6709" y2="134.4175" gradientTransform="matrix(1 0 0 1 0 -80)">
	<stop  offset="0" style="stop-color:#FFFFFF;stop-opacity:0"/>
	<stop  offset="1" style="stop-color:#FFFFFF"/>
</linearGradient>
<path id="gradient" opacity="0.2" fill="url(#gradient_1_)" d="M305.591,54.417L59.22,197.048
	c36.979,74.535,133.292,127.677,246.28,127.677c113.336,0,209.895-53.47,246.621-128.366L305.591,54.417z"/>
<g>
	<path fill="#FFFFFF" d="M211.88,609.173c1.504,0,2.256-1.279,2.256-3.836s-1.079-6.629-3.233-12.219
		c-2.156-5.59-5.464-12.721-9.926-21.393c-4.462-8.673-9.362-17.721-14.701-27.146c-5.339-9.424-10.114-17.996-14.325-25.717
		c15.189-9.574,27.02-20.201,35.492-31.883c11.279,4.061,23.636,8.147,37.071,12.258c-5.214,6.718-10.478,13.385-15.791,20.002
		c-1.605-2.456-5.577-4.988-11.918-7.596c-6.342-2.605-10.666-3.91-12.971-3.91c-2.306,0-3.76,0.352-4.361,1.053
		c-0.602,0.703-0.902,1.605-0.902,2.707c0,3.41,2.03,10.002,6.091,19.777c2.557,0.15,6.667,0.225,12.332,0.225
		c5.665,0,13.81-0.65,24.438-1.955c-1.103,6.016-2.105,11.982-3.008,17.896l-27.146-1.428c7.319,15.54,15.114,29.275,23.386,41.207
		c-8.572,11.781-18.9,26.143-30.98,43.086c-12.232-6.016-23.085-16.092-32.56-30.229c2.305-5.764,5.339-13.408,9.099-22.934
		c5.113,7.82,11.103,15.113,17.972,21.881C205.063,605.788,209.625,609.173,211.88,609.173z"/>
	<path fill="#FFFFFF" d="M248.332,554.968l24.375-19.813l27.625,12.938c-3.25,2.834-4.896,6.021-4.938,9.563l-0.25,20.688
		c0,1.416,0.739,3.021,2.219,4.813c1.479,1.791,2.885,3.229,4.219,4.313l-12.625,13l-9.688-9.938
		c-2.334,1.875-4.688,3.594-7.063,5.156s-4.5,3.197-6.375,4.906c-6.25-2.334-12.084-5.938-17.5-10.813
		c1.541-1.959,2.438-4.813,2.688-8.563l-0.188-18.875c0-0.166,0-0.334,0-0.5C250.832,559.384,249.998,557.093,248.332,554.968z
		 M269.769,550.155c-2.417,3.625-3.625,6.854-3.625,9.688v15.313c0,3.125,0.563,5.354,1.688,6.688
		c0.958,1.375,1.844,2.604,2.656,3.688s2.114,1.875,3.906,2.375l5.125-3.688v-28.75L269.769,550.155z"/>
	<path fill="#FFFFFF" d="M305.582,521.53l0.688-2.938c8.291-2.916,17.228-6.959,26.812-12.125l3.938,2.438
		c-5.916,3.541-8.896,10.229-8.938,20.063l-0.063,12.875l10.375-8.25c3.167,1.334,6.083,3.916,8.751,7.75
		c5.457,7.834,8.645,16.146,9.563,24.938c0.125,1.041,0.188,2.396,0.188,4.063s-0.459,3.084-1.375,4.25l-20.688,26.938
		l-26.813-13.313c1.041-2.25,2.021-4.656,2.938-7.219s1.375-5.344,1.375-8.344l-0.5-43.375
		C311.831,526.196,309.747,523.614,305.582,521.53z M328.019,549.28l-0.188,27.063c0.375,2.084,1.803,3.697,4.281,4.844
		s4.146,1.719,5,1.719s1.447-0.041,1.781-0.125c3.583-0.916,5.376-3.25,5.376-7c0-0.916-0.105-1.916-0.313-3
		c-1.418-7-3.469-12.291-6.157-15.875C335.112,553.321,331.853,550.78,328.019,549.28z"/>
	<path fill="#FFFFFF" d="M392.02,586.218c-7.167,7.916-11.792,13-13.875,15.25c-3.084-2.334-6.156-4.678-9.219-7.031
		s-6.115-4.697-9.156-7.031c2.833-2.459,4.688-4.729,5.563-6.813s1.333-4.063,1.375-5.938l0.313-37.813
		c0-2.709-0.115-5.938-0.344-9.688c-0.229-3.75-1.156-6.916-2.781-9.5l20.625-11.188c-1.125,5-1.781,10.188-1.969,15.563
		s-0.281,10.834-0.281,16.375l-0.25,36.688c0,3.125,0.291,4.896,0.875,5.313C383.478,580.821,386.52,582.759,392.02,586.218z"/>
	<path fill="#FFFFFF" d="M425.707,600.468L395.77,588.53c1.125-6.25,1.688-12.76,1.688-19.531s-0.646-13.844-1.938-21.219
		l21.563-12.688v-0.188l0.125,0.063h0.063l24.313,17.438L416.27,579.03c1.708,2.041,3.604,3.166,5.688,3.375
		c2.083,0.209,3.802,0.313,5.156,0.313c1.354,0,2.958-0.072,4.813-0.219c1.854-0.146,4.135-0.26,6.844-0.344
		c-2.209,3.084-4.396,6.146-6.563,9.188C430.04,594.384,427.873,597.427,425.707,600.468z M415.332,551.78
		c-2.417,0-3.625,3.291-3.625,9.875c0,3.75,0.625,7.5,1.875,11.25c0,0.375,0.063,0.688,0.188,0.938l10.063-10.625
		c0.708-0.75,1.063-1.5,1.063-2.25s-0.365-1.709-1.094-2.875c-0.729-1.166-1.469-2.125-2.219-2.875
		C418.957,552.927,416.873,551.78,415.332,551.78z"/>
</g>
<g>
	<path fill-rule="evenodd" clip-rule="evenodd" fill="#FFFFFF" d="M536.283,431.302c-0.55,0.055-0.915,0.112-1.28,0.122
		c-21.341,0.594-42.671,0.174-63.991-0.785c-17.391-0.78-34.771-1.794-52.167-2.393c-19.039-0.658-38.089-1.143-57.136-1.34
		c-9.808-0.101-19.625,0.573-29.435,0.954c-0.931,0.036-1.291-0.259-1.631-1.053c-1.995-4.665-4.652-8.931-7.998-12.754
		c-2.858-3.263-6.049-6.096-10.453-7.677c0.479-0.241,0.76-0.425,1.064-0.531c24.967-8.734,50.632-13.288,77.125-12.821
		c14.833,0.259,29.528,1.979,44.18,4.178c15.941,2.39,31.868,4.909,47.847,7.052c10.839,1.454,21.776,1.916,32.724,1.724
		c0.313-0.008,0.627-0.054,1.156-0.101c-14.515-57.405-29.008-114.731-43.501-172.058c0.096-0.031,0.192-0.062,0.288-0.093
		c0.868,2.039,1.63,4.127,2.625,6.103c1.716,3.4,3.432,6.816,5.42,10.057c1.547,2.522,3.836,4.341,6.691,5.418
		c0.55,0.207,1.011,1.106,1.19,1.774c2.765,10.292,5.391,20.622,8.21,30.898c10.367,37.781,20.814,75.541,31.185,113.324
		c2.623,9.559,5.072,19.166,7.602,28.753C536.089,430.402,536.159,430.758,536.283,431.302z"/>
	<path fill-rule="evenodd" clip-rule="evenodd" fill="#FFFFFF" d="M299.97,406.317c-8.6,3.974-13.341,11.184-17.513,18.819
		c-1.149,2.104-2.255,2.775-4.698,2.633c-26.897-1.578-53.79-0.884-80.68,0.392c-31.009,1.47-61.99,3.61-93.047,3.869
		c-8.755,0.075-17.512-0.15-26.269-0.241c-0.367-0.005-0.733-0.033-1.281-0.06c0.143-0.638,0.245-1.189,0.39-1.731
		c11.439-42.762,22.896-85.518,34.317-128.283c3.952-14.803,7.823-29.625,11.689-44.451c0.321-1.235,0.838-1.924,2.113-2.376
		c2.471-0.875,4.453-2.627,5.752-4.837c2.194-3.736,4.121-7.632,6.091-11.495c0.764-1.498,1.337-3.092,2.313-4.539
		c-14.478,57.26-28.954,114.521-43.459,171.888c4.523,0,8.868,0.109,13.205-0.019c18.115-0.539,36.052-2.907,53.969-5.439
		c21.753-3.071,43.508-6.08,65.551-6.07c23.914,0.011,47.212,3.748,69.893,11.334C298.753,405.861,299.192,406.035,299.97,406.317z"
		/>
	<path fill-rule="evenodd" clip-rule="evenodd" fill="#FFFFFF" d="M58.451,443.743c2.75-9.149,5.414-18.029,8.087-26.905
		c16.76-55.631,33.525-111.258,50.255-166.897c0.379-1.26,0.861-1.803,2.263-1.748c3.068,0.117,6.146,0.036,9.332,0.385
		c-1.782,0.775-3.533,1.635-5.356,2.297c-1.321,0.481-1.986,1.238-2.371,2.625c-16.695,60.285-33.435,120.559-50.166,180.836
		c-0.138,0.497-0.246,1.003-0.405,1.661c0.724,0,1.297,0.008,1.869-0.003c36.509-0.677,73.019-1.268,109.524-2.058
		c31.146-0.674,62.287-1.57,93.429-2.402c1.347-0.037,2.385,0.271,3.475,1.106c5.523,4.22,10.367,3.778,14.979-1.418
		c1.539-1.733,2.72-3.781,4.127-5.637c1.757-2.32,3.385-4.782,5.422-6.829c2.735-2.745,5.536-2.654,8.203,0.165
		c1.771,1.872,3.181,4.09,4.704,6.187c1.586,2.186,2.963,4.544,4.704,6.597c3.468,4.09,6.907,4.759,11.549,2.032
		c2.277-1.335,4.494-1.719,7.047-1.664c47.067,0.984,94.134,1.923,141.2,2.846c19.897,0.391,39.797,0.721,59.697,1.075
		c0.577,0.011,1.155,0,1.951,0c-0.161-0.663-0.274-1.202-0.42-1.731c-16.063-57.822-32.13-115.64-48.196-173.46
		c-0.708-2.553-1.452-5.099-2.087-7.672c-0.27-1.09-0.818-1.695-1.874-2.091c-1.972-0.744-3.89-1.639-5.834-2.81
		c1.009,0,2.017,0,3.027,0c2.175,0,4.354,0.071,6.526-0.027c1.226-0.056,1.721,0.364,2.076,1.549
		c4.39,14.733,8.846,29.445,13.28,44.164c14.832,49.234,29.665,98.47,44.495,147.706c0.194,0.643,0.36,1.296,0.586,2.112
		c-0.674,0-1.141,0.008-1.606,0c-50.786-0.692-101.572-1.382-152.361-2.076c-23.03-0.313-46.061-0.625-69.091-0.969
		c-1.198-0.019-2.052,0.267-2.904,1.168c-3.478,3.688-7.323,6.923-11.921,9.168c-6.436,3.144-12.866,3.139-19.299-0.003
		c-4.499-2.195-8.287-5.342-11.694-8.944c-1.005-1.065-2.011-1.418-3.452-1.396c-44.736,0.658-89.473,1.274-134.21,1.889
		c-29.028,0.399-58.058,0.783-87.086,1.172C59.506,443.748,59.088,443.743,58.451,443.743z"/>
	<path fill-rule="evenodd" clip-rule="evenodd" fill="#FFFFFF" d="M450.861,225.527c-4.696,1.656-9.204,3.346-13.775,4.833
		c-7.382,2.4-14.9,4.138-22.684,4.703c-7.21,0.523-14.159-0.864-21.084-2.507c-7.944-1.884-15.833-4-23.795-5.795
		c-11.191-2.527-22.405-1.891-33.447,0.809c-8.742,2.136-17.347,4.84-26.013,7.295c-0.499,0.141-0.991,0.302-1.958,0.6
		c0.484-0.416,0.593-0.544,0.729-0.619c11.643-6.396,23.811-11.35,36.975-13.641c12.3-2.141,24.527-1.583,36.694,0.911
		c8.257,1.692,16.465,3.617,24.726,5.304c16.004,3.271,29.8-0.987,41.424-12.411c0.871-0.855,1.744-1.709,2.598-2.581
		c0.813-0.831,1.602-1.687,2.487-2.621c19.39,64.577,38.748,129.05,58.184,193.78c-3.183-0.755-6.194-1.517-9.229-2.178
		c-19.058-4.162-38.068-8.576-57.2-12.367c-17.116-3.391-34.471-4.777-51.945-3.958c-17.629,0.824-34.861,4.059-51.755,9.043
		c-9.194,2.713-18.259,5.865-27.384,8.822c-0.483,0.155-0.969,0.311-1.554,0.179c4.744-1.949,9.468-3.947,14.235-5.837
		c15.661-6.202,31.663-11.251,48.313-14.063c14.252-2.408,28.587-2.95,42.992-1.897c21.437,1.565,42.412,5.979,63.421,10.193
		c6.86,1.376,13.716,2.786,20.576,4.176c0.296,0.06,0.604,0.06,1.053,0.101C485.886,338.952,468.376,282.247,450.861,225.527z"/>
	<path fill-rule="evenodd" clip-rule="evenodd" fill="#FFFFFF" d="M302.256,235.487c-6.887-2.459-13.713-5.075-20.653-7.345
		c-20.33-6.648-41.199-9.468-62.575-8.387c-15.084,0.762-29.953,3.141-44.729,6.132c-8.314,1.682-16.59,3.551-24.894,5.284
		c-1.174,0.245-1.748,0.704-2.047,1.945c-11.917,49.372-23.877,98.732-35.829,148.095c-0.933,3.854-1.847,7.713-2.824,11.803
		c3.341-0.389,6.485-0.754,9.631-1.119c18.177-2.112,36.338-4.373,54.534-6.296c15.795-1.669,31.65-2.255,47.535-1.542
		c25.097,1.127,49.296,6.171,72.283,16.52c0.527,0.236,1.044,0.498,1.488,0.949c-0.468-0.171-0.94-0.329-1.403-0.514
		c-13.828-5.513-28.204-8.814-42.947-10.645c-21.647-2.688-43.311-2.229-64.987-0.378c-22.006,1.882-43.807,5.256-65.573,8.895
		c-5.857,0.98-11.715,1.962-17.573,2.937c-0.458,0.078-0.924,0.106-1.627,0.187c0.645-2.591,1.229-4.988,1.84-7.381
		c13.993-54.863,27.993-109.724,41.965-164.592c0.279-1.096,0.71-1.667,1.877-1.95c15.972-3.881,31.938-7.774,48.177-10.428
		c16.496-2.695,33.06-4.13,49.776-2.704c21.186,1.808,40.726,8.361,58.362,20.353C302.144,235.36,302.208,235.442,302.256,235.487z"
		/>
	<path fill-rule="evenodd" clip-rule="evenodd" fill="#FFFFFF" d="M305.496,239.458c3.747,54.591,5.098,109.169,0.398,163.763
		c-2.786-27.235-3.833-54.542-3.739-81.901C302.249,293.989,303.451,266.702,305.496,239.458z"/>
	<path fill-rule="evenodd" clip-rule="evenodd" fill="#FFFFFF" d="M306.75,406.286c1.796,0.796,3.931,1.332,5.555,2.551
		c2.697,2.023,5.325,4.264,7.52,6.811c3.454,4.01,6.554,8.328,9.733,12.568c0.814,1.08,1.75,2.412,0.808,3.778
		c-1.001,1.454-2.619,1.12-4.087,0.77c-1.948-0.461-3.399-1.526-4.395-3.349c-2.605-4.758-5.594-9.26-9.4-13.169
		c-0.739-0.759-1.482-1.523-2.294-2.202c-2.307-1.929-4.093-2.09-6.417-0.143c-2.103,1.757-4.161,3.67-5.812,5.839
		c-2.368,3.112-4.408,6.482-6.474,9.813c-1.524,2.462-4.252,3.908-7.094,3.502c-1.974-0.285-2.719-1.556-1.982-3.419
		c0.155-0.392,0.347-0.78,0.583-1.128c3.96-5.852,8.099-11.574,13.344-16.361c1.748-1.597,3.713-3.001,5.743-4.223
		C303.354,407.157,304.931,406.9,306.75,406.286z"/>
	<g>
		<path opacity="0.5" fill="#FFFFFF" d="M307.327,338.953c7.072-20.088,14.664-39.98,22.112-59.932
			c8.771,14.406,16.785,29.292,23.806,44.63c8.06,1.911,9.013,4.486,17.128,4.292c6.485-20.961,12.16-42.001,17.065-63.388
			c3.923-9.479,7.173-19.444,14.099-27.265c10.945,11.474,19.674,24.516,28.557,37.599c9.832,2.86,14.462,4.037,22.629,6.515
			c1.023-19.288,0.805-37.813-1.464-57.007c4.094,13.696,8.233,27.377,12.4,41.051c8.707,28.43,17.464,56.844,26.025,85.318
			c-1.205,11.837-3.529,24.771-10.538,34.703c-8.807-4.684-18.086-8.438-27.596-11.428c-13.179-11.863-22.951-24.26-32.445-39.157
			c-6.578,6.927-14.381,12.593-22.577,17.447c-6.49,9.85-14.833,18.508-24.602,25.132c-8.414-0.246-8.854-1.308-17.7-2.629
			c-10.046-12.048-17.064-26.343-24.222-40.19C320.08,335.682,314.851,336.668,307.327,338.953"/>
		<path opacity="0.33" fill="#FFFFFF" d="M307.327,338.953c7.046-16.877,14.701-33.452,22.369-50.053
			c8.53,14.789,16.482,29.924,23.729,45.384c8.129,2.433,8.896,5.244,17.206,5.65c7.225-19.701,13.16-39.642,18.136-60.021
			c4.645-10.693,8.683-21.741,14.227-32.018c10.969,14.91,21.006,30.478,31.221,45.906c10.234,3.237,15.015,4.589,23.561,7.336
			c1.338-18.776,1.601-36.98-0.074-55.74c2.376,8.017,3.57,12.025,5.959,20.049c6.48,21.167,12.987,42.326,19.441,63.501
			c-1.101,14.399-2.463,28.558-7.51,42.218c-8.652-3.594-17.542-6.598-26.532-9.223c-12.84-14.682-23.569-29.441-33.654-46.122
			c-5.646,8.709-12.648,16.478-20.418,23.339c-6.674,12.335-13.72,23.643-23.313,33.947c-8.561-0.917-8.973-2.827-17.616-5.008
			c-9.128-13.569-16.519-28.206-23.996-42.718C320.215,330.118,314.944,332.984,307.327,338.953"/>
		<path fill="none" stroke="#FFFFFF" stroke-width="3" stroke-linejoin="round" stroke-miterlimit="10" d="M307.327,338.953
			c6.768-11.067,14.628-21.419,22.668-31.582c7.973,15.064,15.805,30.202,23.748,45.281c8.336,2.82,8.845,5.585,17.407,6.721
			c8.408-15.815,15.003-32.036,20.648-49.017c6.383-10.078,11.779-20.716,16.576-31.628c10.917,17.563,21.886,34.818,33.869,51.697
			c10.825,3.307,15.824,4.738,24.996,7.754c2.346-16.862,3.876-33.656,3.168-50.704"/>
	</g>
	<g>
		<path fill="none" stroke="#FFFFFF" stroke-width="3" stroke-linejoin="round" stroke-miterlimit="10" d="M108.776,382.492
			c7.86,0.84,12.861,1.388,23.403,2.843c8.167-13.749,17.778-26.491,26.032-40.173c6.748-6.656,12.875-13.917,18.485-21.551
			c5.835,14.687,15.24,27.51,20.945,42.316c6.396-0.93,9.28-1.388,15.123-2.168c5.666-12.514,12.109-24.639,18.449-36.818
			c7.128-6.964,10.949-10.124,18.107-17.181c5.482,14.168,10.588,28.469,16.096,42.627c7.851,3.562,12.023,5.642,20.072,10.085
			c6.732-8.956,13.633-17.21,21.365-25.319"/>
	</g>
</g>
<path id="outline" fill="#3674A8" d="M587.52,204.656L356.209,71.099L306,42.123l-50.209,28.976L24.48,204.656L0.083,218.728
	v353.293l24.396,14.071l234.142,135.225L306,748.629l47.378-27.312L587.52,586.095l24.397-14.07V218.728L587.52,204.656z
	 M587.52,558.783L306,721.317L24.48,558.783v-325.15L306,71.099l0,0l281.52,162.534V558.783z"/>
</svg>
